# xmcd
#
# Track frame offsets:
#	150
#	17070
#	32552
#	47372
#	58100
#	75175
#	91145
#	107322
#	120687
#	134100
#	147877
#	161035
#
# Disc length: 2406 seconds
#
# Revision: 3
# Processed by: cddbd v1.5.2PL0 Copyright (c) Steve Scherf et al.
# Submitted via: EZCDAudioConverter 7.0.0.1
#
DISCID=9009640c
DTITLE=BARRERITO - LEMBRANÇAS [CD 6502 2) RGE
DYEAR=1995
DGENRE=SERTANEJO
TTITLE0=HIPOCRISIA (BY GILMAR SINISTRO)
TTITLE1=A DOR DO ADEUS (BY GILMAR SINISTRO)
TTITLE2=DÓI DEMAIS (BY GILMAR SINISTRO)
TTITLE3=ANDORINHA MENSAGEIRA (BY GILMAR SINISTRO)
TTITLE4=HORAS ETERNAS (BY GILMAR SINISTRO)
TTITLE5=BARBARIDADE (BY GILMAR SINISTRO)
TTITLE6=BANDIDA (BY GILMAR SINISTRO)
TTITLE7=MULHER DOS MEUS SONHOS (BY GILMAR SINISTRO)
TTITLE8=SÓ VOCÊ (BY GILMAR SINISTRO)
TTITLE9=NUNCA MAIS SEREI FELIZ (BY GILMAR SINISTRO)
TTITLE10=CUIDADO CORAÇÃO (JUIZO CORAÇÃO) (BY GILMAR SINISTRO)
TTITLE11=PROCISSÃO (BY GILMAR SINISTRO)
EXTD=
EXTT0=
EXTT1=
EXTT2=
EXTT3=
EXTT4=
EXTT5=
EXTT6=
EXTT7=
EXTT8=
EXTT9=
EXTT10=
EXTT11=
PLAYORDER=
